<svg width="52" height="52" viewBox="0 0 52 52" fill="none" xmlns="http://www.w3.org/2000/svg">
<circle cx="26" cy="26" r="25" fill="#625D5D"/>
<path d="M23.0664 51.3838C24.4257 51.5387 27.6342 51.5388 28.9834 51.3838H28.9854C38.9472 50.1877 47.3108 43.2964 50.3584 33.7588L50.5137 33.2598C51.2589 30.8075 51.5101 28.9046 51.5 25.9766L51.4932 25.126C51.4625 23.2439 51.3173 22.0345 50.9609 20.4336V20.4307C48.605 10.1497 40.2535 2.34775 29.8623 0.734375L29.8633 0.733398C29.1733 0.625808 27.9141 0.549899 26.6875 0.517578C25.4624 0.485306 24.2124 0.49431 23.541 0.568359V0.569336C14.8611 1.4839 7.41972 6.52782 3.42578 14.1455L3.0498 14.8906C1.42883 18.2464 0.67074 21.3165 0.517578 25.0957V25.0967C0.254493 32.1872 2.96164 39.07 8.00391 44.0859C12.0486 48.114 17.3968 50.7033 23.0635 51.3838H23.0664ZM28.7012 48.6699C27.4973 48.8258 24.5528 48.8258 23.3486 48.6699L23.3467 48.6689C18.8017 48.1001 14.6157 46.2472 11.1328 43.2656C5.57195 38.508 2.58439 31.0712 3.30957 23.8096L3.39648 23.0693C4.41381 15.4498 9.16989 8.84234 16.0869 5.48633C19.9062 3.63216 24.1233 2.8749 28.2422 3.28516L28.7471 3.3418C33.9594 3.98656 38.7813 6.39794 42.4395 10.1934C49.0659 17.0811 50.7153 27.3363 46.584 35.873C43.1763 42.908 36.5096 47.6891 28.7031 48.6689L28.7012 48.6699Z" fill="#625D5D" stroke="black"/>
<circle cx="26" cy="26" r="18.5" fill="#404040" stroke="white"/>
<path d="M25.9981 14.8808L27.924 22.1831L35.4663 21.7711L37.3521 21.6681L35.7634 22.6903L29.4126 26.779L32.1365 33.8241L32.8177 35.5864L31.3538 34.3918L25.5031 29.6148L19.6448 34.3826L18.179 35.5748L18.863 33.8136L21.5971 26.7728L15.2537 22.674L13.6666 21.6493L15.5532 21.7553L23.093 22.1792L25.0313 14.88L25.5162 13.0542L25.9981 14.8808Z" fill="#404040" stroke="#F0FAB9"/>
</svg>
