<svg width="51" height="51" viewBox="0 0 51 51" fill="none" xmlns="http://www.w3.org/2000/svg">
<g opacity="0.5">
<circle cx="25.5" cy="25.5" r="24.5" fill="white"/>
<path d="M22.624 50.3857C23.9569 50.5376 27.1019 50.5377 28.4248 50.3857H28.4268C38.1933 49.2131 46.3931 42.4572 49.3809 33.1064L49.5332 32.6172C50.2638 30.213 50.5099 28.3471 50.5 25.4766L50.4932 24.6426C50.4631 22.798 50.321 21.6124 49.9717 20.043L49.9707 20.04C47.697 10.1181 39.7285 2.55039 29.7627 0.807617L29.2871 0.728516C28.6103 0.622991 27.3767 0.549258 26.1748 0.517578C24.974 0.485938 23.7476 0.494718 23.0889 0.567383V0.568359C14.305 1.49399 6.81445 6.73293 3 14.6084H2.99902C1.40986 17.8983 0.667731 20.9083 0.517578 24.6133V24.6143C0.267711 31.3485 2.75065 37.8915 7.40039 42.7646L7.85742 43.2314C11.8228 47.1803 17.0657 49.7187 22.6211 50.3857H22.624ZM28.1455 47.7061C26.9665 47.8587 24.0814 47.8587 22.9023 47.7061H22.9004C18.4482 47.1488 14.3482 45.3329 10.9365 42.4121C5.48939 37.7518 2.56313 30.4676 3.27344 23.3545L3.3584 22.6289C4.35505 15.1651 9.01434 8.69259 15.79 5.40527C19.5312 3.58905 23.6617 2.84719 27.6963 3.24902L28.1914 3.30469C33.297 3.93637 38.0202 6.29879 41.6035 10.0166C48.0945 16.7637 49.7101 26.8097 45.6631 35.1719C42.3249 42.0629 35.7944 46.7463 28.1475 47.7061H28.1455Z" fill="white" stroke="black"/>
<circle cx="25.5001" cy="25.5" r="18.14" fill="white" stroke="#0A255B"/>
<path d="M25.5079 14.6006L27.3929 21.7486L34.776 21.3452L36.6628 21.2422L35.0741 22.2654L28.8571 26.2673L31.5235 33.164L32.2047 34.9262L30.7408 33.7317L25.0131 29.0553L19.2779 33.7226L17.8121 34.9148L18.4961 33.1536L21.1725 26.2612L14.9628 22.2495L13.3757 21.2238L15.2623 21.3298L22.6439 21.7448L24.5411 14.5998L25.026 12.774L25.5079 14.6006Z" stroke="#0A255B"/>
</g>
</svg>
