<svg width="50" height="50" viewBox="0 0 50 50" fill="none" xmlns="http://www.w3.org/2000/svg">
<circle cx="25" cy="25" r="21.5" fill="#424241" stroke="#DBDBDB"/>
<path d="M40.7839 29.2055C40.5331 28.9102 40.1434 28.845 39.8435 29.0467C39.6561 29.1728 39.6083 29.2868 39.4634 30.0871C38.5567 35.0639 34.7419 38.9746 29.34 40.4869C27.4829 41.0062 25.6823 41.1873 23.5809 41.059C22.0284 40.964 22.0199 40.9629 21.8366 41.2023C21.6132 41.489 21.625 41.6107 21.8936 41.9008L22.1223 42.1632L23.0985 42.2365C26.4119 42.4909 29.3423 42.0273 32.163 40.7983C36.8029 38.7821 39.9877 34.9404 40.8148 30.3515C40.9734 29.4328 40.9734 29.4328 40.7839 29.2055Z" fill="#F0FAB9"/>
<path d="M22.5958 0.0658085C13.8051 0.991213 6.3147 6.23159 2.49965 14.1083C0.909155 17.401 0.167638 20.4032 0.0171856 24.1156C-0.240733 31.0669 2.41368 37.8137 7.35713 42.7313C11.3226 46.6804 16.567 49.2199 22.123 49.887C23.4448 50.0377 26.6151 50.0377 27.9261 49.887C37.6948 48.7141 45.8945 41.9565 48.8821 32.6056C49.731 29.9585 50.0104 28.0539 49.9997 24.9764C49.9997 22.6091 49.8707 21.3286 49.4731 19.5423C47.1626 9.45974 38.9737 1.80901 28.7859 0.227216C27.4748 0.0227665 23.8639 -0.0740782 22.5958 0.0658085ZM27.2921 1.78749C32.8159 2.34704 37.942 4.84348 41.8 8.84639C48.5704 15.8838 50.2576 26.3645 46.0342 35.0913C42.5523 42.2793 35.7389 47.1646 27.7649 48.1653C26.5183 48.3267 23.5308 48.3267 22.2842 48.1653C17.6416 47.5843 13.3645 45.6904 9.80735 42.6452C4.12239 37.7814 1.07035 30.1845 1.81187 22.7597C2.62861 14.6571 7.57206 7.57665 14.869 4.03644C18.77 2.14259 23.0794 1.36783 27.2921 1.78749Z" fill="#5C5C5C"/>
<path d="M9.17188 30.0872L9.38068 33.1439L5.47213 32.6507L5.20471 29.5852L6.21869 29.7123L6.36691 31.6067L6.88792 31.6732L6.74872 29.8939L6.89357 29.9121C7.43391 29.9788 7.70415 30.0131 7.7043 30.0149L7.84564 31.8216L8.33587 31.8824L8.18573 29.9633L9.17188 30.0872Z" fill="#F0FAB9"/>
<path d="M9.19274 27.2949L9.10044 28.3717C9.1006 28.3699 8.6228 28.2126 7.66704 27.8998C6.71128 27.5869 6.15282 27.4047 5.99165 27.353C5.8697 27.316 5.68433 27.2676 5.43553 27.2078C5.20848 27.1519 5.09131 27.1236 5.084 27.1229L5.11699 26.0296L5.22942 26.0703C5.63276 26.2162 5.91518 26.3131 6.07666 26.3611C6.24513 26.4135 6.80569 26.5821 7.75832 26.867L9.19274 27.2949Z" fill="#F0FAB9"/>
<path d="M9.66957 24.2993L9.41631 25.299L6.15649 25.1566L6.39479 24.0816C6.5394 24.1153 6.73654 24.1358 6.98618 24.1431C7.37659 24.1546 7.7987 24.1529 8.25253 24.138C7.91872 23.7239 7.60114 23.3466 7.29978 23.006C7.10725 22.7882 6.94856 22.6271 6.82372 22.5228L7.07013 21.4158L9.66957 24.2993Z" fill="#F0FAB9"/>
<path d="M7.902 18.9348L7.4909 19.8836L6.91444 19.4509L7.26871 18.4604L7.902 18.9348ZM10.7125 21.0498L10.3014 21.9986L7.74129 20.0732L8.14741 19.1221L10.7125 21.0498Z" fill="#F0FAB9"/>
<path d="M11.8167 18.7741C11.7602 18.862 11.6628 18.9862 11.5246 19.1468C11.3864 19.3074 11.1797 19.4205 10.9043 19.4861C10.6285 19.5491 10.3421 19.4778 10.0452 19.2721L10.0294 19.2612L10.58 18.4055C10.6828 18.4522 10.7845 18.438 10.8852 18.3628C10.9744 18.2953 11.0532 18.2084 11.1216 18.102C11.1306 18.0881 11.1554 18.0462 11.196 17.9763C11.2376 17.9048 11.2706 17.8163 11.2951 17.7106C11.319 17.6023 11.3106 17.5341 11.2699 17.5059C11.2669 17.5038 11.2531 17.4965 11.2285 17.4839C11.2039 17.4714 11.1211 17.5288 10.9803 17.6564C10.8888 17.7579 10.7929 17.8765 10.6926 18.0121C10.5794 18.1677 10.4601 18.3124 10.3348 18.4463C10.2104 18.5786 10.0775 18.6649 9.93617 18.7051C9.80729 18.7429 9.66975 18.7111 9.52357 18.6099L9.48211 18.5778C9.20105 18.3408 9.0663 18.0067 9.07786 17.5756C9.08927 17.2937 9.15899 17.0144 9.28702 16.7375C9.33647 16.6336 9.39095 16.5354 9.45047 16.4428C9.54769 16.2918 9.67767 16.1388 9.84041 15.9841C10.0041 15.8278 10.2018 15.734 10.4333 15.7027C10.6103 15.6782 10.7839 15.7249 10.9542 15.8429C11.0054 15.8784 11.056 15.9201 11.1058 15.968L10.518 16.8814C10.4092 16.844 10.3011 16.8816 10.1937 16.9944C10.1574 17.0339 10.1248 17.076 10.0961 17.1208C10.0385 17.2102 9.99456 17.3123 9.96419 17.4273C9.9408 17.5381 9.94493 17.6045 9.97658 17.6264C9.9811 17.6296 9.9959 17.6354 10.021 17.6438C10.047 17.6507 10.1036 17.6119 10.1907 17.5273C10.2797 17.433 10.3707 17.3255 10.4636 17.2048C10.5793 17.0554 10.7001 16.9151 10.8259 16.7838C10.9528 16.651 11.0874 16.557 11.2296 16.5018C11.3714 16.444 11.5221 16.4536 11.6817 16.5307C11.9379 16.7082 12.0946 16.9471 12.1518 17.2476C12.2086 17.5454 12.1883 17.8546 12.091 18.1751C12.0252 18.3925 11.9338 18.5922 11.8167 18.7741Z" fill="#F0FAB9"/>
<path d="M16.1416 14.7975L15.2673 15.483L13.6467 11.8714L14.0151 11.579L14.2645 11.3799C14.4319 11.2487 14.62 11.107 14.8288 10.9549C15.038 10.8002 15.254 10.6751 15.4768 10.5796C15.7443 10.4769 15.9897 10.4777 16.213 10.582C16.3758 10.6593 16.5138 10.7757 16.6271 10.9313C16.6682 10.9876 16.7296 11.0954 16.8116 11.2546C16.8925 11.4124 16.9288 11.6598 16.9205 11.997C16.9054 12.2626 16.841 12.4947 16.7273 12.6933C16.615 12.8908 16.4755 13.0665 16.3088 13.2205C16.1703 13.3477 16.0289 13.4679 15.8846 13.581L15.6206 13.788L16.1416 14.7975ZM15.8212 12.3875C15.8991 12.3264 15.9521 12.2545 15.9803 12.1719C16.0085 12.0892 16.0158 12.009 16.0022 11.9312C15.9926 11.8713 15.9715 11.8191 15.9392 11.7746C15.9305 11.7627 15.9122 11.7422 15.8841 11.713C15.8549 11.6823 15.8033 11.6658 15.729 11.6635C15.6562 11.66 15.5737 11.6945 15.4813 11.7669L15.1962 11.987C15.0101 12.1329 14.9162 12.2077 14.9144 12.2115L15.2087 12.8677L15.8212 12.3875Z" fill="#F0FAB9"/>
<path d="M19.4185 12.4002L18.5018 12.8667L17.7359 9.64476L18.5522 9.14608L18.6056 9.38111C18.8072 9.13869 19.0436 8.94846 19.3148 8.81043C19.4423 8.74557 19.5678 8.69814 19.6915 8.66811L19.5874 9.84376L19.5788 9.85124L19.5616 9.85997C19.5038 9.87497 19.4496 9.89536 19.399 9.92114C19.2748 9.98433 19.1641 10.0931 19.0668 10.2475C18.9703 10.3994 18.9466 10.5914 18.9955 10.8235C19.0464 11.0341 19.1039 11.2608 19.168 11.5037C19.233 11.7441 19.2912 11.953 19.3426 12.1304L19.4185 12.4002Z" fill="#F0FAB9"/>
<path d="M22.8073 10.9262C22.7825 10.9329 22.7007 10.9534 22.5618 10.9874C22.4247 11.021 22.2528 11.0252 22.0459 10.9999C21.7518 10.9585 21.5188 10.8302 21.347 10.6148C21.2211 10.4535 21.1313 10.2671 21.0777 10.0556C21.0593 9.98271 21.0379 9.84984 21.0136 9.65696C20.9889 9.46231 21.0283 9.2074 21.1319 8.89225C21.2355 8.5771 21.4149 8.30016 21.6702 8.06143C21.9326 7.82836 22.2337 7.66551 22.5732 7.57288C22.8739 7.49087 23.1504 7.48862 23.4026 7.56613C23.6966 7.67405 23.8993 7.87715 24.0108 8.17544C24.0399 8.253 24.0653 8.33444 24.0869 8.41974C24.1476 8.65966 24.1751 8.92482 24.1693 9.21521L22.7492 9.59969L21.9752 9.81365C22.0546 9.97058 22.1659 10.0666 22.3091 10.1016C22.4425 10.1355 22.5861 10.1315 22.74 10.0895C22.7506 10.0867 22.8008 10.072 22.8905 10.0456C22.9798 10.0175 23.0986 9.94898 23.2469 9.84013C23.3952 9.73129 23.5135 9.60876 23.6019 9.47255L24.1288 10.0185C23.9435 10.2724 23.7275 10.4757 23.4807 10.6285C23.2599 10.7647 23.0354 10.864 22.8073 10.9262ZM23.1931 8.73192C23.1535 8.59071 23.0743 8.49831 22.9555 8.45472C22.8367 8.41113 22.7047 8.40912 22.5597 8.44868C22.4235 8.48582 22.3025 8.55682 22.1967 8.66168C22.0905 8.76476 22.0193 8.89437 21.9832 9.05051L23.1931 8.73192Z" fill="#F0FAB9"/>
<path d="M26.7735 10.1326C26.6691 10.1364 26.511 10.1274 26.2993 10.1057C26.0877 10.0839 25.8732 9.97885 25.6559 9.79039C25.4404 9.60004 25.3267 9.32437 25.3146 8.96341L25.3139 8.94417L26.3308 8.90751C26.3547 9.01855 26.4269 9.09391 26.5474 9.1336C26.655 9.16824 26.772 9.18329 26.8984 9.17873C26.9149 9.17813 26.9634 9.17455 27.0439 9.16798C27.1262 9.16134 27.2171 9.13788 27.3167 9.09761C27.418 9.05543 27.4678 9.0096 27.4662 8.96013C27.466 8.95647 27.4637 8.94096 27.4591 8.9136C27.4545 8.88625 27.3589 8.85118 27.1722 8.80838C27.0358 8.79128 26.8832 8.78027 26.7143 8.77535C26.5216 8.77129 26.3339 8.75604 26.1515 8.7296C25.9708 8.7031 25.822 8.64333 25.7052 8.55032C25.5978 8.46613 25.5412 8.33517 25.5352 8.15744L25.5362 8.10512C25.5588 7.73923 25.7468 7.43802 26.1003 7.20146C26.3337 7.04995 26.5999 6.94771 26.899 6.89473C27.0121 6.87598 27.1236 6.86462 27.2335 6.86066C27.4131 6.85418 27.6136 6.87355 27.8353 6.91876C28.0587 6.9639 28.2522 7.0725 28.4158 7.24455C28.5412 7.37579 28.6074 7.54493 28.6144 7.75198C28.6164 7.81428 28.6131 7.87952 28.6044 7.94771L27.5189 7.98685C27.484 7.8762 27.3891 7.809 27.2342 7.78523C27.1808 7.77798 27.1275 7.77532 27.0743 7.77723C26.9681 7.78107 26.8597 7.80332 26.7491 7.84399C26.6461 7.88807 26.5952 7.92935 26.5965 7.96783C26.5966 7.97332 26.6008 7.98877 26.609 8.01415C26.619 8.03948 26.684 8.06373 26.8041 8.08692C26.9331 8.10612 27.0739 8.11939 27.2264 8.12673C27.4156 8.13642 27.6006 8.15543 27.7813 8.18377C27.9639 8.21205 28.1199 8.26879 28.2493 8.35402C28.3805 8.43735 28.4628 8.56646 28.4962 8.74138C28.5066 9.05287 28.4081 9.31784 28.2008 9.53628C27.9953 9.75283 27.7347 9.91265 27.419 10.0158C27.2049 10.0859 26.9897 10.1248 26.7735 10.1326Z" fill="#F0FAB9"/>
<path d="M30.5031 10.2336L29.4324 10.0872C29.4342 10.0875 29.6075 9.61716 29.9525 8.67625C30.2974 7.73535 30.4984 7.18553 30.5555 7.02681C30.5967 6.90662 30.6513 6.72351 30.7195 6.47749C30.7831 6.25305 30.8154 6.13719 30.8163 6.12991L31.9056 6.21777L31.8611 6.32825C31.7018 6.72464 31.5953 7.00244 31.5419 7.16165C31.4838 7.32765 31.2963 7.88023 30.9793 8.81941L30.5031 10.2336Z" fill="#F0FAB9"/>
<path d="M32.7855 10.7368C32.7611 10.729 32.6812 10.7016 32.5461 10.6545C32.4126 10.608 32.2646 10.5174 32.1019 10.3827C31.8733 10.1865 31.7409 9.94988 31.7046 9.67274C31.6797 9.4666 31.6983 9.25896 31.7604 9.0498C31.7818 8.97774 31.8312 8.85307 31.9087 8.67578C31.9867 8.49673 32.1498 8.30157 32.3979 8.0903C32.6461 7.87903 32.9392 7.74177 33.2773 7.67853C33.6185 7.62399 33.9567 7.65029 34.292 7.75742C34.5889 7.85228 34.8247 8.00169 34.9993 8.20565C35.1939 8.45832 35.2627 8.74199 35.2056 9.05665C35.1909 9.13853 35.171 9.22166 35.146 9.30602C35.0755 9.54329 34.964 9.78378 34.8114 10.0275L33.4107 9.57709L32.645 9.33533C32.6327 9.51226 32.6783 9.65481 32.782 9.76297C32.8779 9.86483 33.0019 9.94003 33.1538 9.98857C33.1643 9.99192 33.2143 10.0069 33.3039 10.0336C33.394 10.0586 33.5297 10.0654 33.7109 10.054C33.892 10.0426 34.0548 10.0032 34.1991 9.93577L34.3686 10.6884C34.0823 10.8028 33.7955 10.8575 33.5084 10.8523C33.2517 10.8473 33.0108 10.8088 32.7855 10.7368ZM34.2287 9.08221C34.2669 8.94049 34.2467 8.81858 34.168 8.71647C34.0893 8.61436 33.9784 8.54043 33.8352 8.49468C33.7007 8.45171 33.5619 8.44585 33.4188 8.4771C33.2762 8.50659 33.1499 8.57784 33.0399 8.69085L34.2287 9.08221Z" fill="#F0FAB9"/>
<path d="M36.1943 12.8835L35.3657 12.3883L36.1581 11.9236L37.0609 8.86414L37.9905 9.38123C37.9274 9.51002 37.8629 9.69238 37.7969 9.92832C37.6927 10.2973 37.5941 10.6995 37.5012 11.1349C37.9611 10.9294 38.3822 10.7296 38.7645 10.5354C39.0097 10.4108 39.1953 10.3029 39.3214 10.2118L40.2816 10.7472L37.4626 12.2069L36.1943 12.8835Z" fill="#F0FAB9"/>
</svg>
