<svg xmlns="http://www.w3.org/2000/svg">
  <symbol id="disk" viewBox="0 0 35 35">
   <path fill="#fff" d="m26 2-4 1c-4 1-8 4-11 8L3 22l-1 5 1 3 3 1 5-1 11-8 8-11 1-5-1-3-3-1h-1Zm5 1 1 3-1 5c-2 4-4 8-8 12s-8 7-12 8l-5 1-3-1v1c2 1 5 2 9 0 4-1 8-4 12-8s7-8 8-12c2-4 1-7 0-9h-1ZM20 8l2 1v4l-4 5-5 4H9l-1-2 1-2 4-5 5-4a7 7 0 0 1 2-1Z"/>
  </symbol>


  <symbol id="foot" viewBox="0 0 35 35">
     <path
              stroke="#fff"
              stroke-linecap="round"
              stroke-linejoin="round"
              stroke-miterlimit="10"
              stroke-width="2"
              d="M30 31h-9l-4-2L3 15l8-8c0 4 4 8 9 8h1c0 5 2 9 6 10l1 1c2 0 2 1 2 3v2Z"
            />
            <path
              stroke="#fff"
              stroke-linecap="round"
              stroke-linejoin="round"
              stroke-miterlimit="10"
              stroke-width="2"
              d="m1 18 15 14 4 2h10M11 19a2 2 0 1 0 0-4 2 2 0 0 0 0 4ZM16 21h5M19 24h6M31 1l-8 8c-2 2-3 5-2 7M11 8l5-4 2-3"
            />
  </symbol>


  <symbol id="hand" viewBox="0 0 35 35">
    <g
              stroke="#fff"
              stroke-linecap="round"
              stroke-linejoin="round"
              stroke-miterlimit="10"
              stroke-width="2"
              clip-path="url(#a)"
            >
              <path d="M14 15a8 8 0 1 0 0-15 8 8 0 0 0 0 15Z" />
              <path d="m20 12 3 5 1 2 2 8-8 4c-4 2-8 2-11 0l-2 2" />
              <path
                d="M8 20h2c3 0 5 1 6 3h2c-1-2-2-2-2-7M14 10a2 2 0 1 0 0-5 2 2 0 0 0 0 5ZM11 5l2 1M11 11l2-2M17 11l-1-2M17 5l-1 1M0 14l5 2 3 6"
              />
            </g>
            <defs>
              <clipPath id="a"><path fill="#fff" d="M0 0h35v35H0z" /></clipPath>
            </defs>
  </symbol>


  <symbol id="winner" viewBox="0 0 35 35">
     <path
              stroke="#fff"
              stroke-linecap="round"
              stroke-linejoin="round"
              stroke-miterlimit="10"
              stroke-width="2"
              d="M18.6 33.9a10.94 10.94 0 1 0 0-21.87 10.94 10.94 0 0 0 0 21.88Z"
            />
            <path
              stroke="#fff"
              stroke-linecap="round"
              stroke-linejoin="round"
              stroke-miterlimit="10"
              stroke-width="2"
              d="M11.38 14.77 8.75 1.09h19.69L25.8 14.77M15.97 12.36 15.3 1.09M21.88 1.1l-.66 11.26M18.6 18.6v8.74M16.4 27.34h4.38M16.4 20.78h2.2"
            />
  </symbol>


  <symbol id="" viewBox="">
  
  </symbol>


  <symbol id="" viewBox="">
  
  </symbol>


  <symbol id="" viewBox="">
  
  </symbol>

</svg>