<?xml version="1.0" standalone="no"?>
<!DOCTYPE svg PUBLIC "-//W3C//DTD SVG 20010904//EN"
 "http://www.w3.org/TR/2001/REC-SVG-20010904/DTD/svg10.dtd">
<svg version="1.0" xmlns="http://www.w3.org/2000/svg"
 width="512.000000pt" height="512.000000pt" viewBox="0 0 512.000000 512.000000"
 preserveAspectRatio="xMidYMid meet">

<g transform="translate(0.000000,512.000000) scale(0.100000,-0.100000)"
fill="#000000" stroke="none">
<path d="M4535 5113 c-11 -3 -32 -17 -47 -31 l-28 -26 -23 22 c-32 30 -81 29
-112 -3 -31 -30 -32 -67 -4 -107 l22 -30 -40 -40 -40 -39 -42 21 c-36 20 -45
21 -72 10 -52 -22 -66 -86 -30 -132 l20 -25 -42 -41 -42 -41 -25 19 c-50 39
-120 17 -136 -44 -6 -25 14 -74 40 -95 13 -11 7 -28 -48 -140 l-64 -127 -437
-419 c-240 -231 -440 -421 -445 -423 -5 -2 -32 13 -62 33 -226 156 -458 215
-673 170 -104 -21 -256 -101 -342 -180 -92 -84 -134 -148 -209 -322 -76 -176
-104 -224 -166 -286 -68 -68 -123 -89 -363 -142 -419 -92 -599 -176 -790 -369
-225 -227 -349 -518 -332 -781 18 -262 125 -516 325 -770 202 -255 468 -489
698 -613 431 -233 807 -212 1177 67 202 151 327 329 412 584 18 56 54 196 80
312 53 240 74 295 142 363 62 62 110 90 286 166 174 75 238 117 322 209 79 86
159 238 180 342 45 216 -26 482 -183 692 -13 18 -22 37 -20 42 1 6 192 206
423 446 l419 437 127 64 c112 55 129 61 140 48 21 -26 70 -46 95 -40 61 16 83
86 44 136 l-19 25 41 42 41 42 25 -20 c46 -36 110 -22 132 30 11 27 10 36 -10
72 l-21 42 39 40 40 40 30 -22 c39 -28 73 -27 106 4 33 31 35 79 4 112 l-22
23 28 29 c54 56 45 204 -21 338 -84 172 -281 296 -461 292 -26 -1 -56 -3 -67
-6z m224 -198 c61 -33 130 -105 161 -165 12 -24 25 -70 28 -103 l5 -59 -237
-237 -237 -237 -120 -59 -119 -60 -122 123 -122 122 54 112 55 113 240 243
240 244 61 -5 c42 -3 78 -14 113 -32z m-760 -919 l104 -105 -230 -238 c-126
-131 -431 -447 -677 -703 -246 -256 -450 -466 -454 -468 -4 -1 -22 22 -39 51
-37 62 -120 143 -181 177 -23 13 -41 27 -40 31 4 10 1401 1358 1408 1358 3 1
52 -46 109 -103z m-1432 -563 c78 -28 243 -119 243 -134 0 -4 -119 -122 -264
-263 l-265 -256 -48 0 c-116 0 -253 -60 -343 -150 -163 -162 -202 -399 -100
-607 140 -285 512 -376 773 -190 129 93 217 254 217 400 l0 48 256 265 c141
145 259 264 263 264 15 0 105 -164 135 -243 28 -76 30 -92 31 -217 l0 -135
-48 -98 c-78 -160 -168 -236 -372 -317 -196 -78 -315 -162 -393 -280 -50 -75
-72 -141 -118 -355 -48 -226 -77 -322 -129 -434 -55 -114 -114 -198 -197 -279
-275 -269 -586 -346 -918 -230 -109 39 -172 71 -290 148 -125 82 -171 120
-318 265 -150 146 -228 238 -316 372 -146 223 -205 414 -193 626 8 157 47 263
152 422 102 153 238 270 406 350 112 52 208 81 434 129 214 46 280 68 355 118
123 82 193 183 295 426 78 186 157 273 316 346 95 44 102 45 239 42 98 -3 127
-8 197 -33z m-173 -843 c102 -39 177 -125 212 -245 14 -51 15 -70 6 -133 -7
-40 -21 -91 -33 -114 -34 -66 -103 -132 -172 -164 -54 -25 -74 -29 -152 -29
-110 0 -174 26 -249 101 -75 75 -101 139 -101 249 0 78 4 98 29 152 30 66 96
137 157 169 87 46 202 51 303 14z"/>
<path d="M821 1714 c-12 -15 -21 -41 -21 -58 0 -27 47 -77 413 -443 366 -366
416 -413 443 -413 48 0 84 34 84 78 0 35 -19 56 -413 450 -393 393 -414 412
-449 412 -28 0 -42 -6 -57 -26z"/>
</g>
</svg>
